<?xml version="1.0" standalone="no"?>
<!DOCTYPE svg PUBLIC "-//W3C//DTD SVG 1.1//EN" "http://www.w3.org/Graphics/SVG/1.1/DTD/svg11.dtd" >
<svg xmlns="http://www.w3.org/2000/svg" xmlns:xlink="http://www.w3.org/1999/xlink" version="1.1">
<metadata>
Created by FontForge 20170731 at Wed Jul  1 13:26:05 2009
 By ,,,
4.1 (c)1986-92 by Richard A. Ware. All Rights Reserved.
</metadata>
<defs>
<font id="SansSerifBldFLFCond" horiz-adv-x="204" >
  <font-face 
    font-family="SansSerifBldFLFCond"
    font-weight="550"
    font-stretch="normal"
    units-per-em="1000"
    panose-1="2 0 6 6 2 0 0 2 0 3"
    ascent="800"
    descent="-200"
    x-height="460"
    cap-height="714"
    bbox="-29 -206 734 912"
    underline-thickness="35"
    underline-position="-193"
    unicode-range="U+0020-FB02"
  />
<missing-glyph horiz-adv-x="500" 
 />
    <glyph glyph-name="fi" unicode="fi" horiz-adv-x="378" 
d="M52 319h-34v142h34v117q0 73 35 118t107 45q48 0 79 -17.5t45.5 -50.5t19.5 -66t5 -78h-104q0 74 -41 74q-42 0 -42 -62v-80h60v-142h-60v-319h-104v319zM343 461v-461h-104v461h104z" />
    <glyph glyph-name="fl" unicode="fl" horiz-adv-x="378" 
d="M343 0h-104v541q0 17 -1.5 27.5t-11 22.5t-28.5 12q-42 0 -42 -62v-80h60v-142h-60v-319h-104v319h-34v142h34v136q0 58 36 101t106 43q73 0 111 -43t38 -102v-596z" />
    <glyph glyph-name=".notdef" horiz-adv-x="500" 
 />
    <glyph glyph-name=".null" horiz-adv-x="0" 
 />
    <glyph glyph-name="nonmarkingreturn" horiz-adv-x="333" 
 />
    <glyph glyph-name="space" unicode=" " horiz-adv-x="208" 
 />
    <glyph glyph-name="exclam" unicode="!" horiz-adv-x="184" 
d="M148 714v-492h-104v492h104zM154 88q0 -41 -16 -68.5t-42 -27.5t-42 27.5t-16 68.5t16 68.5t42 27.5t42 -27.5t16 -68.5z" />
    <glyph glyph-name="quotedbl" unicode="&#x22;" horiz-adv-x="205" 
d="M85 748l-11 -192h-25l-10 192h46zM166 748l-10 -192h-25l-11 192h46z" />
    <glyph glyph-name="numbersign" unicode="#" horiz-adv-x="462" 
d="M234 719l-18 -119h78l18 119h67l-18 -119h76l-16 -108h-77l-17 -114h77l-17 -110h-77l-18 -120h-66l18 120h-78l-18 -120h-66l17 120h-74l16 110h75l17 114h-74l17 108h73l18 119h67zM200 492l-18 -114h78l18 114h-78z" />
    <glyph glyph-name="dollar" unicode="$" horiz-adv-x="361" 
d="M236 224q0 33 -17.5 53.5t-56.5 35.5q-122 50 -122 198q0 81 35 136.5t94 69.5v53h43v-52q25 0 56.5 -14t51.5 -35l-33 -125q-49 42 -87 42q-23 0 -37.5 -18t-14.5 -45q0 -32 13 -50t45 -29q67 -24 104 -80.5t37 -140.5q0 -89 -34.5 -147.5t-100.5 -77.5v-79h-43v76
q-92 9 -146 105l51 119q18 -40 45 -60.5t55 -20.5q62 0 62 86z" />
    <glyph glyph-name="percent" unicode="%" horiz-adv-x="419" 
d="M216 594q0 -60 -25.5 -103.5t-72.5 -43.5q-46 0 -72 44t-26 103q0 60 26 104t72 44q47 0 72.5 -44t25.5 -104zM155 594q0 24 -9.5 42t-27.5 18q-17 0 -27 -18t-10 -43q0 -24 10 -42t27 -18t27 18.5t10 42.5zM368 714l-264 -714h-54l263 714h55zM404 140
q0 -60 -25.5 -103.5t-71.5 -43.5q-47 0 -72.5 43.5t-25.5 103.5t25.5 104t72.5 44q46 0 71.5 -44t25.5 -104zM343 140q0 24 -9.5 42t-26.5 18q-18 0 -28 -18t-10 -43q0 -24 10 -42t28 -18q17 0 26.5 18.5t9.5 42.5z" />
    <glyph glyph-name="ampersand" unicode="&#x26;" horiz-adv-x="406" 
d="M286 0l-28 70q-3 -3 -14.5 -17t-14 -17t-12 -13t-15 -12t-15.5 -7t-20.5 -6.5t-23.5 -1.5q-55 0 -89.5 54.5t-34.5 125.5q0 66 21 112.5t81 114.5l-23 55q0 1 -8 20.5t-10 27t-5.5 25t-3.5 35.5q0 58 32.5 107.5t84.5 49.5q56 0 87 -45.5t31 -111.5q0 -62 -17 -96
t-65 -90l52 -128l65 75l43 -111l-63 -72l59 -144h-94zM223 559q0 22 -9.5 35.5t-23.5 13.5q-15 0 -24.5 -14t-9.5 -34q0 -14 10 -38l18 -44q30 35 35 51q4 13 4 30zM109 193q0 -28 12.5 -48t31.5 -20q5 0 10.5 2.5t12.5 9t11 11.5t13 15.5t13 15.5l-52 125
q-2 -3 -11.5 -12.5t-14.5 -16.5t-12 -19t-10.5 -28t-3.5 -35z" />
    <glyph glyph-name="quotesingle" unicode="'" horiz-adv-x="117" 
d="M87 748l-12 -192h-27l-11 192h50z" />
    <glyph glyph-name="parenleft" unicode="(" horiz-adv-x="224" 
d="M17 326q0 122 38 238t110 204l43 -65q-116 -143 -116 -370q0 -221 111 -365l-42 -64q-71 83 -107.5 193t-36.5 229z" />
    <glyph glyph-name="parenright" unicode=")" horiz-adv-x="214" 
d="M23 -32q111 144 111 365q0 227 -116 370l43 65q72 -88 110 -204t38 -238q0 -119 -36.5 -229t-107.5 -193z" />
    <glyph glyph-name="asterisk" unicode="*" horiz-adv-x="216" 
d="M106 617q-13 52 -13 68q0 28 18 28t18 -28q0 -19 -13 -68q46 53 71 53q6 0 11 -5t5 -11q0 -7 -6 -13.5t-18.5 -11.5t-21 -8t-23 -7t-15.5 -4q2 -1 10.5 -3t14.5 -3.5t15.5 -4.5t16 -6t13 -6.5t10 -8.5t3.5 -10q0 -17 -15 -17q-26 0 -71 52q13 -55 13 -67q0 -27 -18 -27
t-18 27q0 12 13 67q-45 -52 -71 -52q-6 0 -11 5t-5 11q0 23 84 43q-3 1 -11.5 3t-14.5 4t-15.5 5t-16 6t-12.5 6.5t-9.5 8t-3.5 9.5q0 7 4.5 12t10.5 5q29 0 71 -52z" />
    <glyph glyph-name="plus" unicode="+" horiz-adv-x="321" 
d="M124 346v153h77v-153h85v-102h-85v-153h-77v153h-83v102h83z" />
    <glyph glyph-name="comma" unicode="," horiz-adv-x="168" 
d="M127 110l-79 -259h-45l45 259h79z" />
    <glyph glyph-name="hyphen" unicode="-" horiz-adv-x="242" 
d="M200 346v-102h-156v102h156z" />
    <glyph glyph-name="period" unicode="." horiz-adv-x="153" 
d="M130 82q0 -36 -15 -61t-37 -25t-37 25t-15 61t15 61t37 25t37 -25t15 -61z" />
    <glyph glyph-name="slash" unicode="/" horiz-adv-x="184" 
d="M52 -36h-43l129 786h43z" />
    <glyph glyph-name="zero" unicode="0" horiz-adv-x="422" 
d="M406 357q0 -95 -21 -176.5t-66.5 -136t-107.5 -54.5t-107.5 54t-66.5 135.5t-21 176.5t21 176.5t66.5 135.5t107.5 54t107.5 -54t66.5 -135t21 -176zM119 356q0 -92 24.5 -159.5t67.5 -67.5t67.5 67.5t24.5 159.5t-24.5 160t-67.5 68t-67.5 -68t-24.5 -160z" />
    <glyph glyph-name="one" unicode="1" horiz-adv-x="250" 
d="M213 714v-714h-122v592h-58v122h180z" />
    <glyph glyph-name="two" unicode="2" horiz-adv-x="338" 
d="M17 467q0 108 37.5 180.5t109.5 72.5q71 0 111.5 -58t40.5 -147q0 -73 -14.5 -128t-44.5 -119l-60 -125h121v-143h-307l161 372q28 67 28 133q0 65 -39 65q-43 0 -43 -103h-101z" />
    <glyph glyph-name="three" unicode="3" horiz-adv-x="369" 
d="M27 505q-1 56 13.5 103t51.5 81t92 34q74 0 117 -53t43 -142q0 -61 -11.5 -91t-34.5 -53q58 -33 58 -166q0 -103 -47.5 -164.5t-120.5 -61.5q-78 0 -121 62.5t-43 153.5h112q0 -30 12 -50t37 -20q56 0 56 103q0 57 -19.5 79t-54.5 22v81q32 0 49 17.5t17 66.5
q0 79 -51 79q-50 0 -50 -81h-105z" />
    <glyph glyph-name="four" unicode="4" horiz-adv-x="416" 
d="M340 714v-461h55v-127h-55v-126h-112v126h-194v139l184 449h122zM228 253v247l-96 -247h96z" />
    <glyph glyph-name="five" unicode="5" horiz-adv-x="349" 
d="M82 714h210v-132h-135l-6 -78q14 4 31 4q64 0 107 -63.5t43 -182.5q0 -136 -51.5 -204t-140.5 -68q-72 0 -120 45l11 143q45 -45 103 -45q88 0 88 139q0 126 -85 126q-52 0 -84 -26z" />
    <glyph glyph-name="six" unicode="6" horiz-adv-x="407" 
d="M269 714l-90 -259q15 15 48 15q61 0 111.5 -59.5t50.5 -176.5q0 -118 -51 -184t-141 -66q-84 0 -132.5 73t-48.5 184q0 75 36 176l107 297h110zM275 228q0 49 -19 84.5t-53 35.5q-33 0 -52 -35.5t-19 -84.5q0 -48 19 -83.5t52 -35.5q34 0 53 35.5t19 83.5z" />
    <glyph glyph-name="seven" unicode="7" horiz-adv-x="361" 
d="M356 714l-234 -715l-117 1l197 582h-177v132h331z" />
    <glyph glyph-name="eight" unicode="8" horiz-adv-x="383" 
d="M355 539q0 -108 -68 -158q35 -18 60 -63.5t25 -122.5q0 -88 -49.5 -150.5t-126.5 -62.5q-80 0 -130 60.5t-50 150.5q0 76 25.5 122t59.5 66q-70 51 -70 158q0 77 45 131.5t118 54.5t117 -54.5t44 -131.5zM151 532q0 -25 11.5 -43.5t31.5 -18.5t31.5 18.5t11.5 43.5
q0 24 -11.5 42.5t-31.5 18.5t-31.5 -18.5t-11.5 -42.5zM132 220q0 -37 16 -63t46 -26t46 26t16 63q0 36 -16 62t-46 26t-46 -26t-16 -62z" />
    <glyph glyph-name="nine" unicode="9" horiz-adv-x="419" 
d="M151 0l88 251q-18 -19 -48 -19q-67 0 -114 60t-47 180q0 110 50 180t134 70q89 0 136.5 -72t47.5 -185q0 -90 -31 -176l-106 -289h-110zM144 478q0 -49 19 -84.5t52 -35.5q34 0 53 35.5t19 84.5q0 48 -19 83.5t-53 35.5q-33 0 -52 -35.5t-19 -83.5z" />
    <glyph glyph-name="colon" unicode=":" horiz-adv-x="153" 
d="M130 82q0 -36 -15 -61t-37 -25t-37 25t-15 61t15 61t37 25t37 -25t15 -61zM130 364q0 -36 -15 -61t-37 -25t-37 25t-15 61t15 61t37 25t37 -25t15 -61z" />
    <glyph glyph-name="semicolon" unicode=";" horiz-adv-x="147" 
d="M127 110l-79 -259h-45l45 259h79zM130 364q0 -36 -15 -61t-37 -25t-37 25t-15 61t15 61t37 25t37 -25t15 -61z" />
    <glyph glyph-name="less" unicode="&#x3c;" horiz-adv-x="211" 
d="M188 536v-148l-65 -92l61 -92v-148l-157 240z" />
    <glyph glyph-name="equal" unicode="=" horiz-adv-x="260" 
d="M226 234v-102h-184v102h184zM226 417v-102h-184v102h184z" />
    <glyph glyph-name="greater" unicode="&#x3e;" horiz-adv-x="211" 
d="M39 56v148l60 92l-64 92v148l161 -240z" />
    <glyph glyph-name="question" unicode="?" horiz-adv-x="331" 
d="M205 211h-93v182h34q54 0 54 96q0 97 -40 97q-35 0 -41 -85h-103q2 40 10.5 76.5t25.5 69.5t45.5 52.5t65.5 19.5q76 0 115 -62t39 -150q0 -107 -29.5 -166.5t-82.5 -59.5v-70zM216 88q0 -40 -17 -68t-41 -28q-23 0 -40 28t-17 68t17 68t40 28q24 0 41 -28t17 -68z" />
    <glyph glyph-name="at" unicode="@" horiz-adv-x="405" 
d="M143 383q0 -88 45 -88q28 0 44 30t16 71q0 37 -13 63.5t-36 26.5q-56 0 -56 -103zM51 401q0 -109 40.5 -184.5t112.5 -75.5q57 0 97 48l16 -36q-45 -57 -113 -57q-84 0 -136 86.5t-52 218.5q0 79 21 147.5t65 114t104 45.5q83 0 135 -87t52 -204q0 -71 -19.5 -126.5
t-59.5 -55.5q-42 0 -57 48q-23 -48 -71 -48q-39 0 -62.5 41t-23.5 103q0 66 26.5 116.5t72.5 50.5q43 0 64 -55l5 48h38l-22 -192q0 -61 34 -61q40 0 40 131q0 99 -41 172.5t-111 73.5q-53 0 -89 -40.5t-51 -97.5t-15 -124z" />
    <glyph glyph-name="A" unicode="A" horiz-adv-x="400" 
d="M140 714h119l132 -714h-108l-22 116h-123l-22 -116h-108zM199 455l-38 -211h77z" />
    <glyph glyph-name="B" unicode="B" horiz-adv-x="361" 
d="M307 522q0 -111 -40 -140q73 -34 73 -175q0 -100 -37 -153.5t-98 -53.5h-168v714h143q58 0 92.5 -52.5t34.5 -139.5zM148 439h13q42 0 42 70q0 32 -11.5 52.5t-30.5 20.5h-13v-143zM148 133h37q23 0 37 22t14 64q0 41 -14.5 64t-38.5 23h-35v-173z" />
    <glyph glyph-name="C" unicode="C" horiz-adv-x="378" 
d="M130 357q0 -98 31 -166.5t88 -68.5q60 0 101 41v-135q-38 -40 -100 -40q-74 0 -127.5 55t-78.5 137t-25 177t24.5 176t77.5 135t125 54q28 0 49 -6.5t30 -13t25 -21.5v-149q-16 15 -26 23t-30 15.5t-45 7.5q-57 0 -88 -64t-31 -157z" />
    <glyph glyph-name="D" unicode="D" horiz-adv-x="412" 
d="M391 356q0 -69 -13.5 -131t-40 -113t-70 -81.5t-99.5 -30.5h-131v714h131q56 0 99.5 -30.5t70 -82t40 -114t13.5 -131.5zM147 152h21q50 0 74 57.5t24 145.5t-24 147t-74 59h-21v-409z" />
    <glyph glyph-name="E" unicode="E" horiz-adv-x="288" 
d="M252 587h-105v-153h98v-128h-98v-178h105v-128h-214v714h214v-127z" />
    <glyph glyph-name="F" unicode="F" horiz-adv-x="294" 
d="M262 587h-115v-153h108v-128h-108v-306h-109v714h224v-127z" />
    <glyph glyph-name="G" unicode="G" horiz-adv-x="485" 
d="M334 507q-13 28 -22 41.5t-27 24t-44 10.5q-46 0 -75 -68.5t-29 -158.5q0 -89 29.5 -163t74.5 -74q95 0 103 172h-94v105h209q0 -6 0.5 -20t0.5 -21q0 -102 -26 -185t-77 -132.5t-117 -49.5q-92 0 -156.5 107.5t-64.5 259.5t64.5 259.5t156.5 107.5q158 0 201 -184z" />
    <glyph glyph-name="H" unicode="H" horiz-adv-x="416" 
d="M164 434h90v280h128v-714h-128v306h-90v-306h-127v714h127v-280z" />
    <glyph glyph-name="I" unicode="I" horiz-adv-x="211" 
d="M168 0h-127v714h127v-714z" />
    <glyph glyph-name="J" unicode="J" horiz-adv-x="326" 
d="M288 714v-515q0 -104 -37 -155.5t-101 -51.5q-45 0 -74.5 21t-51.5 63l64 88q22 -43 51 -43q39 0 39 85v508h110z" />
    <glyph glyph-name="K" unicode="K" horiz-adv-x="419" 
d="M164 482l97 232h128l-138 -328l152 -386h-127l-112 282v-282h-127v714h127v-232z" />
    <glyph glyph-name="L" unicode="L" horiz-adv-x="279" 
d="M164 128h91v-128h-218v714h127v-586z" />
    <glyph glyph-name="M" unicode="M" horiz-adv-x="517" 
d="M370 404l-80 -404h-61l-81 404l-37 -404h-104l69 714h111l72 -402l79 402h108l62 -714h-104z" />
    <glyph glyph-name="N" unicode="N" horiz-adv-x="490" 
d="M348 260v454h110v-714h-110l-204 446v-446h-109v714h100z" />
    <glyph glyph-name="O" unicode="O" horiz-adv-x="478" 
d="M460 355q0 -155 -62.5 -261t-158.5 -106t-158 106t-62 261t62 261t158 106t158.5 -106t62.5 -261zM334 348q0 93 -25 161t-69 68q-45 0 -69.5 -68t-24.5 -161t24.5 -160.5t69.5 -67.5q44 0 69 68t25 160z" />
    <glyph glyph-name="P" unicode="P" horiz-adv-x="363" 
d="M347 487q0 -113 -48 -167.5t-128 -54.5h-7v-265h-127v714h140q80 0 125 -58t45 -169zM164 404h18q49 0 49 83q0 88 -50 88h-17v-171z" />
    <glyph glyph-name="Q" unicode="Q" horiz-adv-x="481" 
d="M239 -12q-96 0 -158 106t-62 261t62 261t158 106t158.5 -106t62.5 -261q0 -191 -90 -300l43 -106l-96 -36l-33 82q-20 -7 -45 -7zM334 348q0 93 -25 161t-69 68q-45 0 -69.5 -68t-24.5 -161q0 -89 23 -155.5t65 -72.5l-33 83l96 36l16 -39q21 63 21 148z" />
    <glyph glyph-name="R" unicode="R" horiz-adv-x="400" 
d="M359 484q0 -89 -25.5 -134t-55.5 -57l116 -293h-129l-100 265v-265h-128v714h164q69 0 113.5 -56.5t44.5 -173.5zM164 395h24q21 0 32 28t11 64q0 39 -10.5 68t-32.5 29h-24v-189z" />
    <glyph glyph-name="S" unicode="S" horiz-adv-x="396" 
d="M310 553q-43 25 -100 25q-33 0 -49.5 -21t-16.5 -48q0 -54 63 -69q82 -19 128 -82.5t46 -149.5q0 -88 -53.5 -151t-148.5 -63q-92 0 -167 77l47 116q2 -1 12.5 -10.5t13 -11t11.5 -8.5t13 -8.5t13 -6.5t15 -6l15 -2.5t18 -1.5q38 0 59.5 23.5t21.5 56.5q0 34 -21 64
t-62 39q-69 16 -109 66.5t-40 130.5q0 82 49.5 144t132.5 62q87 0 146 -38z" />
    <glyph glyph-name="T" unicode="T" horiz-adv-x="331" 
d="M305 714v-127h-74v-587h-128v587h-73v127h275z" />
    <glyph glyph-name="U" unicode="U" horiz-adv-x="406" 
d="M164 184q0 -33 8 -48.5t29 -15.5t29 14.5t8 49.5v530h127v-511q0 -210 -164 -210t-164 210v511h127v-530z" />
    <glyph glyph-name="V" unicode="V" horiz-adv-x="438" 
d="M138 714l83 -427l84 427h128l-160 -714h-104l-159 714h128z" />
    <glyph glyph-name="W" unicode="W" horiz-adv-x="558" 
d="M181 356l60 358h79l56 -358l52 358h127l-121 -714h-84l-71 387l-73 -387h-84l-115 714h128z" />
    <glyph glyph-name="X" unicode="X" horiz-adv-x="441" 
d="M147 714l70 -185l67 185h129l-127 -341l142 -373h-127l-84 222l-82 -222h-126l141 378l-130 336h127z" />
    <glyph glyph-name="Y" unicode="Y" horiz-adv-x="387" 
d="M139 714l55 -197l56 197h133l-126 -352v-362h-126v362l-125 352h133z" />
    <glyph glyph-name="Z" unicode="Z" horiz-adv-x="396" 
d="M380 714l-196 -586h187v-128h-364l200 587h-170v127h343z" />
    <glyph glyph-name="bracketleft" unicode="[" horiz-adv-x="168" 
d="M140 724h-40v-760h42v-71h-112v903h110v-72z" />
    <glyph glyph-name="backslash" unicode="\" horiz-adv-x="184" 
d="M180 -36h-43l-129 786h43z" />
    <glyph glyph-name="bracketright" unicode="]" horiz-adv-x="168" 
d="M142 796v-903h-112v71h42v760h-40v72h110z" />
    <glyph glyph-name="asciicircum" unicode="^" horiz-adv-x="270" 
d="M129 667h21l81 -278h-25l-67 176l-68 -176h-24z" />
    <glyph glyph-name="underscore" unicode="_" horiz-adv-x="214" 
d="M223 -18v-36h-223v36h223z" />
    <glyph glyph-name="grave" unicode="`" horiz-adv-x="250" 
d="M177 536l-122 121l46 39l94 -145z" />
    <glyph glyph-name="a" unicode="a" horiz-adv-x="392" 
d="M342 464v-464h-92v29q-32 -39 -83 -39q-43 0 -75 35t-47 88t-15 115t15 115t47 88t75 35q58 0 83 -36v34h92zM133 232q0 -39 16.5 -67t40.5 -28q23 0 40 28t17 67t-17 67t-40 28q-24 0 -40.5 -28t-16.5 -67z" />
    <glyph glyph-name="b" unicode="b" horiz-adv-x="382" 
d="M211 466q43 0 75 -35t47 -88t15 -115t-15 -115t-47 -88t-75 -35q-49 0 -83 39v-29h-92v740h92v-310q30 36 83 36zM130 232q0 -41 14.5 -68t42.5 -27t42.5 27t14.5 68t-14.5 68t-42.5 27t-42.5 -27t-14.5 -68z" />
    <glyph glyph-name="c" unicode="c" horiz-adv-x="286" 
d="M126 227q0 -40 16 -61.5t43 -21.5q41 0 62 33v-154q-34 -34 -84 -34q-45 0 -78 35.5t-48 88t-15 114.5t15 115t48 88.5t78 35.5q47 0 84 -27v-150q-28 28 -62 28q-26 0 -42.5 -25t-16.5 -65z" />
    <glyph glyph-name="d" unicode="d" horiz-adv-x="380" 
d="M243 740h92v-740h-92v29q-32 -39 -82 -39q-65 0 -101.5 70.5t-36.5 167.5t36.5 167.5t101.5 70.5q52 0 82 -36v310zM128 232q0 -41 14.5 -68t42.5 -27t42.5 27t14.5 68t-14.5 68t-42.5 27t-42.5 -27t-14.5 -68z" />
    <glyph glyph-name="e" unicode="e" horiz-adv-x="350" 
d="M122 196q0 -36 14 -59t36 -23q43 0 51 37h92q-32 -164 -148 -164q-46 0 -80 36t-49.5 89.5t-15.5 115.5q0 61 16.5 116.5t52 92.5t81.5 37q76 0 114 -72.5t38 -180.5q0 -17 -1 -25h-201zM219 295q-2 24 -14.5 43.5t-34.5 19.5q-21 0 -33.5 -19.5t-13.5 -43.5h96z" />
    <glyph glyph-name="f" unicode="f" horiz-adv-x="240" 
d="M52 317h-33v143h33v118q0 85 30 124t94 39q26 0 46 -10v-122q-10 5 -31 5q-35 0 -35 -54v-100h59v-143h-59v-317h-104v317z" />
    <glyph glyph-name="g" unicode="g" horiz-adv-x="378" 
d="M250 37q-27 -39 -82 -39q-65 0 -101.5 69.5t-36.5 164.5t36.5 164.5t101.5 69.5q22 0 39 -6t24.5 -12t18.5 -18v30h92v-446q0 -100 -39.5 -159t-120.5 -59q-74 0 -110 49t-41 116h99q11 -53 60 -53q30 0 45 27.5t15 68.5v33zM134 232q0 -41 14.5 -68t42.5 -27t42.5 27
t14.5 68t-14.5 68t-42.5 27t-42.5 -27t-14.5 -68z" />
    <glyph glyph-name="h" unicode="h" horiz-adv-x="384" 
d="M33 0v740h104v-339q23 68 85 68q60 0 91 -49t31 -142v-278h-104v239q0 95 -47 95q-24 0 -40 -31t-16 -62v-241h-104z" />
    <glyph glyph-name="i" unicode="i" horiz-adv-x="169" 
d="M135 460v-460h-104v460h104zM138 632q0 -40 -15 -66.5t-40 -26.5q-26 0 -41 26.5t-15 66.5t15 66.5t41 26.5q25 0 40 -26.5t15 -66.5z" />
    <glyph glyph-name="j" unicode="j" horiz-adv-x="157" 
d="M131 460v-664h-104v664h104zM134 632q0 -40 -15 -66.5t-40 -26.5q-26 0 -41 26.5t-15 66.5t15 66.5t41 26.5q25 0 40 -26.5t15 -66.5z" />
    <glyph glyph-name="k" unicode="k" horiz-adv-x="390" 
d="M138 297l103 164h114l-125 -215l147 -246h-127l-112 189v-189h-104v740h104v-443z" />
    <glyph glyph-name="l" unicode="l" horiz-adv-x="184" 
d="M144 0h-104v740h104v-740z" />
    <glyph glyph-name="m" unicode="m" horiz-adv-x="550" 
d="M27 0v460h103v-37q32 45 94 45q65 0 93 -55q10 16 18 26t28 19.5t46 9.5q54 0 83 -41.5t29 -114.5v-312h-103v278q0 74 -46 74q-47 0 -47 -72v-280h-103v283q0 68 -46 68t-46 -70v-281h-103z" />
    <glyph glyph-name="n" unicode="n" horiz-adv-x="364" 
d="M31 0v460h103v-42q30 50 89 50q109 0 109 -180v-288h-104v251q0 48 -8.5 73t-34.5 25q-51 0 -51 -81v-268h-103z" />
    <glyph glyph-name="o" unicode="o" horiz-adv-x="333" 
d="M319 230q0 -98 -40 -170.5t-111 -72.5q-72 0 -112 72.5t-40 171.5t40 171t111 72q72 0 112 -72.5t40 -171.5zM114 232q0 -40 15 -67.5t38 -27.5t38 27.5t15 67.5t-15 67.5t-38 27.5t-38 -27.5t-15 -67.5z" />
    <glyph glyph-name="p" unicode="p" horiz-adv-x="366" 
d="M125 -200h-92v660h92v-29q34 39 83 39q64 0 100.5 -70.5t36.5 -167.5t-36.5 -167.5t-100.5 -70.5q-53 0 -83 36v-230zM126 232q0 -41 14.5 -68t42.5 -27t42.5 27t14.5 68t-14.5 68t-42.5 27t-42.5 -27t-14.5 -68z" />
    <glyph glyph-name="q" unicode="q" horiz-adv-x="388" 
d="M163 -6q-43 0 -75 35t-47 88t-15 115t15 115t47 88t75 35q49 0 83 -39v29h92v-660h-92v230q-30 -36 -83 -36zM131 232q0 -41 14.5 -68t42.5 -27t42.5 27t14.5 68t-14.5 68t-42.5 27t-42.5 -27t-14.5 -68z" />
    <glyph glyph-name="r" unicode="r" horiz-adv-x="260" 
d="M31 0v460h103v-32q26 44 68 44q21 0 38 -13v-131q-18 9 -36 9q-28 0 -49 -26t-21 -77v-234h-103z" />
    <glyph glyph-name="s" unicode="s" horiz-adv-x="262" 
d="M210 331q-28 26 -53 26q-27 0 -27 -28q0 -23 27 -30q43 -11 65.5 -52t22.5 -94q0 -75 -32 -120t-92 -45q-65 0 -114 63l34 95q38 -45 72 -45q31 0 31 29q0 32 -32 41q-43 10 -66 45t-23 88q0 77 35.5 120t82.5 43q23 0 41 -4.5t27 -10t26 -17.5z" />
    <glyph glyph-name="t" unicode="t" horiz-adv-x="233" 
d="M56 321h-34v143h34v130h104v-130h58v-143h-58v-321h-104v321z" />
    <glyph glyph-name="u" unicode="u" horiz-adv-x="338" 
d="M133 460v-282q0 -63 37 -63t37 63v282h104v-274q0 -95 -36 -146t-105 -51t-105 51t-36 146v274h104z" />
    <glyph glyph-name="v" unicode="v" horiz-adv-x="351" 
d="M177 218l61 242h104l-135 -460h-61l-135 460h104z" />
    <glyph glyph-name="w" unicode="w" horiz-adv-x="531" 
d="M173 217l68 243h51l67 -241l61 241h103l-121 -460h-72l-64 218l-60 -218h-72l-125 460h103z" />
    <glyph glyph-name="x" unicode="x" horiz-adv-x="344" 
d="M117 460l55 -117l55 117h106l-103 -227l107 -233h-109l-56 123l-54 -123h-108l105 233l-104 227h106z" />
    <glyph glyph-name="y" unicode="y" horiz-adv-x="383" 
d="M193 218l79 246h105l-222 -670h-104l90 273l-132 397h103z" />
    <glyph glyph-name="z" unicode="z" horiz-adv-x="324" 
d="M310 464l-122 -334h113v-130h-285l135 333h-121v131h280z" />
    <glyph glyph-name="braceleft" unicode="{" horiz-adv-x="190" 
d="M118 460q0 -82 -45 -105q45 -30 45 -101v-200q0 -48 10.5 -66.5t41.5 -18.5v-78q-62 0 -87.5 38.5t-25.5 122.5v210q0 50 -41 93q14 17 19.5 24.5t13.5 27.5t8 42v189q0 80 26 117.5t87 37.5v-78q-31 0 -41.5 -18.5t-10.5 -68.5v-168z" />
    <glyph glyph-name="bar" unicode="|" horiz-adv-x="107" 
d="M76 -46h-43v801h43v-801z" />
    <glyph glyph-name="braceright" unicode="}" horiz-adv-x="190" 
d="M22 715v78q61 0 87 -37.5t26 -117.5v-189q0 -22 8 -42t13.5 -27.5t19.5 -24.5q-41 -43 -41 -93v-210q0 -84 -25.5 -122.5t-87.5 -38.5v78q31 0 41.5 18.5t10.5 66.5v200q0 71 45 101q-45 23 -45 105v168q0 50 -10.5 68.5t-41.5 18.5z" />
    <glyph glyph-name="asciitilde" unicode="~" horiz-adv-x="362" 
d="M269 487l28 -44q-28 -55 -77 -55q-28 0 -50 22q-23 23 -42 23q-18 0 -27.5 -9.5t-20.5 -31.5l-26 44q28 55 76 55q24 0 49 -21q26 -24 43 -24q26 0 47 41z" />
    <glyph glyph-name="exclamdown" unicode="&#xa1;" horiz-adv-x="184" 
d="M42 -131v492h104v-492h-104zM36 495q0 41 16 68.5t42 27.5t42 -27.5t16 -68.5t-16 -68.5t-42 -27.5t-42 27.5t-16 68.5z" />
    <glyph glyph-name="cent" unicode="&#xa2;" horiz-adv-x="272" 
d="M237 505v-105q-22 48 -70 48q-31 0 -46.5 -31t-15.5 -76t16 -78t46 -33q45 0 70 48v-108q-9 -13 -26.5 -22.5t-34.5 -9.5v-61h-34v61q-55 5 -86 64t-31 137t31 137t86 63v58h34v-57q37 -3 61 -35z" />
    <glyph glyph-name="sterling" unicode="&#xa3;" horiz-adv-x="337" 
d="M174 463q19 -39 25 -86h72v-78h-65q0 -93 -18 -143q33 -19 47 -19q20 0 41.5 12t31.5 29l14 -122q-12 -21 -39.5 -41.5t-61.5 -20.5q-28 0 -58 22q-29 23 -48 23q-24 0 -39 -8.5t-34 -31.5l-21 125q6 15 25 29t39 20q22 36 22 126h-69v78h63q-1 12 -5 23.5t-7 18.5
t-9.5 19t-8.5 17q-21 44 -21 104q0 70 33.5 115t88.5 45q54 0 88 -38t45 -99l-69 -58q-14 71 -51 71q-36 0 -36 -53q0 -29 25 -79z" />
    <glyph glyph-name="yen" unicode="&#xa5;" horiz-adv-x="395" 
d="M129 713l70 -184l70 185h120l-138 -352h61v-56h-61v-41h61v-56h-61v-209h-104v209h-61v56h61v41h-61v56h61l-137 351h119z" />
    <glyph glyph-name="brokenbar" unicode="&#xa6;" horiz-adv-x="148" 
d="M100 270v-270h-54v270h54zM46 377v297h54v-297h-54z" />
    <glyph glyph-name="section" unicode="&#xa7;" horiz-adv-x="306" 
d="M271 82q0 -78 -33 -135t-92 -57q-63 0 -114 63l35 95q38 -45 72 -45q45 0 45 70q0 59 -51 72q-113 30 -113 183q0 87 44 134q-20 43 -20 98q0 79 32.5 135.5t91.5 56.5q63 0 114 -63l-34 -95q-38 45 -73 45q-45 0 -45 -70q0 -59 51 -72q113 -29 113 -183q0 -87 -44 -133
q21 -46 21 -99zM153 389q-49 0 -49 -62q0 -36 18 -55t39 -19q50 0 50 62q0 35 -18.5 54.5t-39.5 19.5z" />
    <glyph glyph-name="dieresis" unicode="&#xa8;" horiz-adv-x="224" 
d="M104 632q0 -31 -12.5 -53t-34.5 -22t-34 22t-12 53q0 30 12 52t34 22t34.5 -22t12.5 -52zM220 632q0 -31 -12.5 -53t-34.5 -22t-34 22t-12 53q0 30 12 52t34 22t34.5 -22t12.5 -52z" />
    <glyph glyph-name="copyright" unicode="&#xa9;" horiz-adv-x="353" 
d="M132 372q0 -35 13 -60.5t37 -25.5q36 0 56 28v-38q-21 -25 -56 -25q-40 0 -61.5 35.5t-21.5 84.5q0 50 21.5 85.5t61.5 35.5q33 0 56 -25v-38q-23 29 -56 29q-24 0 -37 -25.5t-13 -60.5zM23 375q0 104 42 180t117 76q74 0 115.5 -76t41.5 -180q0 -103 -41.5 -179
t-115.5 -76q-75 0 -117 75.5t-42 179.5zM54 374q0 -90 33.5 -156t94.5 -66t94 64t33 154q0 59 -14 109.5t-43.5 84.5t-69.5 34q-60 0 -94 -66.5t-34 -157.5z" />
    <glyph glyph-name="ordfeminine" unicode="&#xaa;" horiz-adv-x="224" 
d="M200 394v-35h-174v35h174zM188 665v-236h-46v15q-16 -20 -42 -20q-33 0 -51.5 35.5t-18.5 85.5q0 49 18.5 85t51.5 36q28 0 42 -18v17h46zM82 547q0 -20 8.5 -34t20.5 -14t20.5 14t8.5 34t-8.5 34t-20.5 14t-20.5 -14t-8.5 -34z" />
    <glyph glyph-name="guillemotleft" unicode="&#xab;" horiz-adv-x="413" 
d="M157 101l-135 164v82l135 164l70 -66l-121 -139l121 -137zM326 101l-135 164v82l135 164l69 -66l-121 -139l121 -137z" />
    <glyph glyph-name="logicalnot" unicode="&#xac;" 
d="M194 396v-40h-183v40h183zM133 747v-322h-54v267h-26v55h80zM178 245q0 -50 -30 -71q38 -20 38 -84q0 -39 -22.5 -67.5t-56.5 -28.5q-36 0 -58.5 27t-22.5 68q0 61 38 85q-31 21 -31 71q0 34 20 58.5t53 24.5t52.5 -24.5t19.5 -58.5zM87 242q0 -28 19 -28t19 28
q0 27 -19 27t-19 -27zM78 101q0 -16 7.5 -28t20.5 -12t20.5 12t7.5 28t-7.5 28t-20.5 12t-20.5 -12t-7.5 -28z" />
    <glyph glyph-name="registered" unicode="&#xae;" horiz-adv-x="256" 
d="M170 637q0 -24 -10.5 -36.5t-26.5 -12.5h-3l36 -84h-15l-35 84h-15v-84h-12v182h43q16 0 27 -14t11 -35zM157 637q0 35 -23 35h-33v-70h33q23 0 23 35zM221 591q0 -65 -28 -111.5t-67 -46.5t-67 46.5t-28 111.5t28 111.5t67 46.5t67 -46.5t28 -111.5zM46 591
q0 -60 22.5 -101.5t57.5 -41.5t57.5 41.5t22.5 101.5t-22.5 101.5t-57.5 41.5t-57.5 -41.5t-22.5 -101.5z" />
    <glyph glyph-name="macron" unicode="&#xaf;" horiz-adv-x="255" 
d="M215 663v-35h-174v35h174z" />
    <glyph glyph-name="degree" unicode="&#xb0;" horiz-adv-x="159" 
d="M20 611q0 40 16.5 69t45.5 29t45.5 -29.5t16.5 -69.5t-16.5 -69t-45.5 -29t-45.5 29.5t-16.5 69.5zM41 610q0 -32 10.5 -55t30.5 -23t31.5 23t11.5 55t-11.5 55.5t-31.5 23.5t-30.5 -23t-10.5 -56z" />
    <glyph glyph-name="plusminus" unicode="&#xb1;" horiz-adv-x="269" 
d="M100 448v112h71v-112h63v-102h-63v-112h-71v112h-62v102h62zM234 178v-102h-196v102h196z" />
    <glyph glyph-name="twosuperior" unicode="&#xb2;" 
d="M39 637q0 49 16.5 81.5t49.5 32.5q32 0 50 -26t18 -66q0 -56 -26 -111l-27 -57h54v-64h-138l73 167q12 32 12 60q0 29 -17 29q-20 0 -20 -46h-45z" />
    <glyph glyph-name="threesuperior" unicode="&#xb3;" 
d="M35 659q-1 39 16.5 68.5t53.5 29.5q33 0 52.5 -24t19.5 -64q0 -45 -20 -65q26 -16 26 -75q0 -46 -21.5 -73.5t-54.5 -27.5q-35 0 -54.5 28t-19.5 69h51q0 -32 22 -32q25 0 25 47q0 45 -33 45v37q29 0 29 37q0 36 -23 36q-22 0 -22 -36h-47z" />
    <glyph glyph-name="acute" unicode="&#xb4;" horiz-adv-x="224" 
d="M192 657l-122 -121l-18 15l94 145z" />
    <glyph glyph-name="mu" unicode="&#xb5;" 
d="M194 396v-40h-183v40h183zM36 208q0 49 16.5 81.5t49.5 32.5q32 0 50 -26t18 -66q0 -56 -26 -111l-27 -57h54v-64h-138l73 167q12 32 12 60q0 29 -17 29q-20 0 -20 -46h-45zM133 747v-322h-54v267h-26v55h80z" />
    <glyph glyph-name="paragraph" unicode="&#xb6;" horiz-adv-x="403" 
d="M265 -97h-61v362h-23q-73 0 -116.5 56.5t-43.5 159.5t42.5 168t107.5 65h94v-811zM301 714h61v-811h-61v811z" />
    <glyph glyph-name="periodcentered" unicode="&#xb7;" horiz-adv-x="188" 
d="M145 368q0 -36 -15 -61t-37 -25t-37 25t-15 61t15 61t37 25t37 -25t15 -61z" />
    <glyph glyph-name="cedilla" unicode="&#xb8;" horiz-adv-x="199" 
d="M132 0l-10 -47q33 -21 33 -61q0 -32 -15 -49.5t-40 -17.5q-24 0 -41 14v75q11 -11 24 -11q19 0 19 22q0 14 -18 27l12 48h36z" />
    <glyph glyph-name="onesuperior" unicode="&#xb9;" 
d="M133 747v-322h-54v267h-26v55h80z" />
    <glyph glyph-name="ordmasculine" unicode="&#xba;" horiz-adv-x="214" 
d="M195 394v-35h-175v35h175zM181 547q0 -49 -20 -85t-55 -36q-36 0 -56 35.5t-20 85.5t20 86t55 36q36 0 56 -36t20 -86zM79 548q0 -20 7.5 -34t18.5 -14q12 0 19.5 14t7.5 34t-7.5 33.5t-19.5 13.5q-11 0 -18.5 -13.5t-7.5 -33.5z" />
    <glyph glyph-name="guillemotright" unicode="&#xbb;" horiz-adv-x="407" 
d="M24 443l65 68l134 -164v-82l-134 -164l-70 68l121 137zM191 443l69 68l135 -164v-82l-135 -164l-69 68l120 137z" />
    <glyph glyph-name="onequarter" unicode="&#xbc;" 
d="M194 396v-40h-183v40h183zM165 318v-208h24v-57h-24v-57h-51v57h-87v63l83 202h55zM133 747v-322h-54v267h-26v55h80zM114 110v111l-43 -111h43z" />
    <glyph glyph-name="onehalf" unicode="&#xbd;" 
d="M194 396v-40h-183v40h183zM36 208q0 49 16.5 81.5t49.5 32.5q32 0 50 -26t18 -66q0 -56 -26 -111l-27 -57h54v-64h-138l73 167q12 32 12 60q0 29 -17 29q-20 0 -20 -46h-45zM133 747v-322h-54v267h-26v55h80z" />
    <glyph glyph-name="threequarters" unicode="&#xbe;" 
d="M194 396v-40h-183v40h183zM35 659q-1 39 16.5 68.5t53.5 29.5q33 0 52.5 -24t19.5 -64q0 -45 -20 -65q26 -16 26 -75q0 -46 -21.5 -73.5t-54.5 -27.5q-35 0 -54.5 28t-19.5 69h51q0 -32 22 -32q25 0 25 47q0 45 -33 45v37q29 0 29 37q0 36 -23 36q-22 0 -22 -36h-47z
M165 319v-208h24v-57h-24v-57h-51v57h-87v63l83 202h55zM114 111v111l-43 -111h43z" />
    <glyph glyph-name="questiondown" unicode="&#xbf;" horiz-adv-x="331" 
d="M133 370h93v-182h-34q-54 0 -54 -96q0 -97 40 -97q35 0 41 85h103q-2 -40 -10.5 -76.5t-25.5 -69.5t-45.5 -52.5t-65.5 -19.5q-76 0 -115 62t-39 150q0 107 29.5 166.5t82.5 59.5v70zM122 493q0 40 17 68t41 28q23 0 40 -28t17 -68t-17 -68t-40 -28q-24 0 -41 28t-17 68z
" />
    <glyph glyph-name="Agrave" unicode="&#xc0;" horiz-adv-x="400" 
d="M206 758l-98 97l37 32l75 -117zM140 714h119l132 -714h-108l-22 116h-123l-22 -116h-108zM199 455l-38 -211h77z" />
    <glyph glyph-name="Aacute" unicode="&#xc1;" horiz-adv-x="400" 
d="M314 857l-97 -97l-14 12l75 117zM140 714h119l132 -714h-108l-22 116h-123l-22 -116h-108zM199 455l-38 -211h77z" />
    <glyph glyph-name="Acircumflex" unicode="&#xc2;" horiz-adv-x="400" 
d="M194 872h17l71 -121h-23l-58 59l-57 -59h-21zM140 714h119l132 -714h-108l-22 116h-123l-22 -116h-108zM199 455l-38 -211h77z" />
    <glyph glyph-name="Atilde" unicode="&#xc3;" horiz-adv-x="400" 
d="M293 859l28 -44q-28 -55 -77 -55q-28 0 -50 22q-23 23 -42 23q-18 0 -27.5 -9.5t-20.5 -31.5l-26 44q28 55 76 55q24 0 49 -21q26 -24 43 -24q26 0 47 41zM140 714h119l132 -714h-108l-22 116h-123l-22 -116h-108zM199 455l-38 -211h77z" />
    <glyph glyph-name="Adieresis" unicode="&#xc4;" horiz-adv-x="400" 
d="M184 819q0 -25 -10 -42.5t-28 -17.5t-27.5 17.5t-9.5 42.5q0 24 9.5 41.5t27.5 17.5t28 -17.5t10 -41.5zM288 819q0 -25 -9.5 -42.5t-27.5 -17.5t-27.5 17.5t-9.5 42.5q0 24 9.5 41.5t27.5 17.5t27.5 -17.5t9.5 -41.5zM140 714h119l132 -714h-108l-22 116h-123l-22 -116
h-108zM199 455l-38 -211h77z" />
    <glyph glyph-name="Aring" unicode="&#xc5;" horiz-adv-x="400" 
d="M145 824q0 36 15 62t41 26t41 -26.5t15 -62.5t-15 -62t-41 -26t-41 26.5t-15 62.5zM164 823q0 -29 9.5 -49.5t27.5 -20.5t28.5 21t10.5 49q0 29 -10.5 50t-28.5 21t-27.5 -21t-9.5 -50zM140 714h119l132 -714h-108l-22 116h-123l-22 -116h-108zM199 455l-38 -211h77z" />
    <glyph glyph-name="AE" unicode="&#xc6;" horiz-adv-x="484" 
d="M247 536l-48 -204h48v204zM121 0h-111l200 714h254v-132h-113v-150h107v-133h-107v-166h113v-133h-217v199h-74z" />
    <glyph glyph-name="Ccedilla" unicode="&#xc7;" horiz-adv-x="378" 
d="M19 357q0 95 24.5 176t77.5 135t125 54q28 0 49 -6.5t30 -13t25 -21.5v-149q-16 15 -26 23t-30 15.5t-45 7.5q-57 0 -88 -64t-31 -157q0 -98 31 -166.5t88 -68.5q60 0 101 41v-135q-37 -39 -98 -40l-7 -35q33 -21 33 -61q0 -32 -15 -49.5t-40 -17.5q-24 0 -41 14v75
q11 -11 24 -11q19 0 19 22q0 14 -18 27l8 39q-93 18 -144.5 124t-51.5 242z" />
    <glyph glyph-name="Egrave" unicode="&#xc8;" horiz-adv-x="288" 
d="M161 758l-98 97l37 32l76 -117zM252 587h-105v-153h98v-128h-98v-178h105v-128h-214v714h214v-127z" />
    <glyph glyph-name="Eacute" unicode="&#xc9;" horiz-adv-x="288" 
d="M231 857l-97 -97l-15 12l75 117zM252 587h-105v-153h98v-128h-98v-178h105v-128h-214v714h214v-127z" />
    <glyph glyph-name="Ecircumflex" unicode="&#xca;" horiz-adv-x="288" 
d="M137 872h17l70 -121h-22l-58 59l-57 -59h-21zM252 587h-105v-153h98v-128h-98v-178h105v-128h-214v714h214v-127z" />
    <glyph glyph-name="Edieresis" unicode="&#xcb;" horiz-adv-x="288" 
d="M127 819q0 -25 -10 -42.5t-28 -17.5t-27.5 17.5t-9.5 42.5q0 24 9.5 41.5t27.5 17.5t28 -17.5t10 -41.5zM231 819q0 -25 -9.5 -42.5t-27.5 -17.5t-27.5 17.5t-9.5 42.5q0 24 9.5 41.5t27.5 17.5t27.5 -17.5t9.5 -41.5zM252 587h-105v-153h98v-128h-98v-178h105v-128h-214
v714h214v-127z" />
    <glyph glyph-name="Igrave" unicode="&#xcc;" horiz-adv-x="211" 
d="M106 758l-98 97l37 32l75 -117zM168 0h-127v714h127v-714z" />
    <glyph glyph-name="Iacute" unicode="&#xcd;" horiz-adv-x="211" 
d="M210 857l-97 -97l-14 12l74 117zM168 0h-127v714h127v-714z" />
    <glyph glyph-name="Icircumflex" unicode="&#xce;" horiz-adv-x="211" 
d="M97 872h17l71 -121h-23l-58 59l-57 -59h-20zM168 0h-127v714h127v-714z" />
    <glyph glyph-name="Idieresis" unicode="&#xcf;" horiz-adv-x="211" 
d="M92 819q0 -25 -10 -42.5t-28 -17.5t-27.5 17.5t-9.5 42.5q0 24 9.5 41.5t27.5 17.5t28 -17.5t10 -41.5zM196 819q0 -25 -9.5 -42.5t-27.5 -17.5t-27.5 17.5t-9.5 42.5q0 24 9.5 41.5t27.5 17.5t27.5 -17.5t9.5 -41.5zM168 0h-127v714h127v-714z" />
    <glyph glyph-name="Eth" unicode="&#xd0;" horiz-adv-x="412" 
d="M147 398h49v-90h-49v-156h21q94 0 94 203q0 89 -22.5 147.5t-71.5 58.5h-21v-163zM37 308h-33v90h33v316h131q56 0 99.5 -30.5t70 -82t40 -114t13.5 -131.5t-13.5 -131t-40 -113t-70 -81.5t-99.5 -30.5h-131v308z" />
    <glyph glyph-name="Ntilde" unicode="&#xd1;" horiz-adv-x="490" 
d="M335 859l28 -44q-28 -55 -77 -55q-28 0 -50 22q-23 23 -42 23q-18 0 -27.5 -9.5t-20.5 -31.5l-26 44q28 55 76 55q24 0 49 -21q26 -24 43 -24q26 0 47 41zM348 260v454h110v-714h-110l-204 446v-446h-109v714h100z" />
    <glyph glyph-name="Ograve" unicode="&#xd2;" horiz-adv-x="478" 
d="M237 758l-98 97l37 32l75 -117zM460 355q0 -155 -62.5 -261t-158.5 -106t-158 106t-62 261t62 261t158 106t158.5 -106t62.5 -261zM334 348q0 93 -25 161t-69 68q-45 0 -69.5 -68t-24.5 -161t24.5 -160.5t69.5 -67.5q44 0 69 68t25 160z" />
    <glyph glyph-name="Oacute" unicode="&#xd3;" horiz-adv-x="478" 
d="M327 855l-97 -97l-15 12l75 117zM460 355q0 -155 -62.5 -261t-158.5 -106t-158 106t-62 261t62 261t158 106t158.5 -106t62.5 -261zM334 348q0 93 -25 161t-69 68q-45 0 -69.5 -68t-24.5 -161t24.5 -160.5t69.5 -67.5q44 0 69 68t25 160z" />
    <glyph glyph-name="Ocircumflex" unicode="&#xd4;" horiz-adv-x="478" 
d="M229 872h17l70 -121h-22l-58 59l-57 -59h-21zM460 355q0 -155 -62.5 -261t-158.5 -106t-158 106t-62 261t62 261t158 106t158.5 -106t62.5 -261zM334 348q0 93 -25 161t-69 68q-45 0 -69.5 -68t-24.5 -161t24.5 -160.5t69.5 -67.5q44 0 69 68t25 160z" />
    <glyph glyph-name="Otilde" unicode="&#xd5;" horiz-adv-x="478" 
d="M329 859l28 -44q-28 -55 -77 -55q-28 0 -50 22q-23 23 -42 23q-18 0 -27.5 -9.5t-20.5 -31.5l-26 44q28 55 76 55q24 0 49 -21q26 -24 43 -24q26 0 47 41zM460 355q0 -155 -62.5 -261t-158.5 -106t-158 106t-62 261t62 261t158 106t158.5 -106t62.5 -261zM334 348
q0 93 -25 161t-69 68q-45 0 -69.5 -68t-24.5 -161t24.5 -160.5t69.5 -67.5q44 0 69 68t25 160z" />
    <glyph glyph-name="Odieresis" unicode="&#xd6;" horiz-adv-x="478" 
d="M228 819q0 -25 -10 -42.5t-28 -17.5t-27.5 17.5t-9.5 42.5q0 24 9.5 41.5t27.5 17.5t28 -17.5t10 -41.5zM332 819q0 -25 -9.5 -42.5t-27.5 -17.5t-27.5 17.5t-9.5 42.5q0 24 9.5 41.5t27.5 17.5t27.5 -17.5t9.5 -41.5zM460 355q0 -155 -62.5 -261t-158.5 -106t-158 106
t-62 261t62 261t158 106t158.5 -106t62.5 -261zM334 348q0 93 -25 161t-69 68q-45 0 -69.5 -68t-24.5 -161t24.5 -160.5t69.5 -67.5q44 0 69 68t25 160z" />
    <glyph glyph-name="multiply" unicode="&#xd7;" horiz-adv-x="564" 
d="M38 449l48 48l196 -197l197 197l48 -48l-197 -196l197 -197l-48 -48l-197 197l-196 -197l-48 48l196 197z" />
    <glyph glyph-name="Oslash" unicode="&#xd8;" horiz-adv-x="478" 
d="M19 355q0 155 62 261t158 106q51 0 95 -33l16 46h61l-33 -91q82 -108 82 -289q0 -155 -62.5 -261t-158.5 -106q-48 0 -93 31l-15 -39h-62l33 83q-83 107 -83 292zM334 348q0 93 -25 161t-69 68q-45 0 -69.5 -68t-24.5 -161t24.5 -160.5t69.5 -67.5q44 0 69 68t25 160z
" />
    <glyph glyph-name="Ugrave" unicode="&#xd9;" horiz-adv-x="406" 
d="M201 758l-98 97l36 32l76 -117zM164 184q0 -33 8 -48.5t29 -15.5t29 14.5t8 49.5v530h127v-511q0 -210 -164 -210t-164 210v511h127v-530z" />
    <glyph glyph-name="Uacute" unicode="&#xda;" horiz-adv-x="406" 
d="M286 857l-97 -97l-15 12l75 117zM164 184q0 -33 8 -48.5t29 -15.5t29 14.5t8 49.5v530h127v-511q0 -210 -164 -210t-164 210v511h127v-530z" />
    <glyph glyph-name="Ucircumflex" unicode="&#xdb;" horiz-adv-x="406" 
d="M196 872h17l70 -121h-22l-58 59l-57 -59h-21zM164 184q0 -33 8 -48.5t29 -15.5t29 14.5t8 49.5v530h127v-511q0 -210 -164 -210t-164 210v511h127v-530z" />
    <glyph glyph-name="Udieresis" unicode="&#xdc;" horiz-adv-x="406" 
d="M184 819q0 -25 -10 -42.5t-28 -17.5t-27.5 17.5t-9.5 42.5q0 24 9.5 41.5t27.5 17.5t28 -17.5t10 -41.5zM288 819q0 -25 -9.5 -42.5t-27.5 -17.5t-27.5 17.5t-9.5 42.5q0 24 9.5 41.5t27.5 17.5t27.5 -17.5t9.5 -41.5zM164 184q0 -33 8 -48.5t29 -15.5t29 14.5t8 49.5
v530h127v-511q0 -210 -164 -210t-164 210v511h127v-530z" />
    <glyph glyph-name="Yacute" unicode="&#xdd;" horiz-adv-x="387" 
d="M139 714l55 -197l56 197h133l-126 -352v-362h-126v362l-125 352h133zM286 857l-97 -97l-15 12l75 117z" />
    <glyph glyph-name="Thorn" unicode="&#xde;" horiz-adv-x="363" 
d="M347 365q0 -113 -48 -167.5t-128 -54.5h-7v-143h-127v714h127v-122h13q80 0 125 -58t45 -169zM164 282h18q49 0 49 83q0 88 -50 88h-17v-171z" />
    <glyph glyph-name="germandbls" unicode="&#xdf;" horiz-adv-x="426" 
d="M207 714q56 0 97.5 -46t41.5 -125q0 -39 -5.5 -63t-12 -32.5t-21.5 -21.5q36 -7 66.5 -55.5t30.5 -129.5q0 -107 -33 -174t-99 -67h-63v133h23q66 0 66 108q0 55 -20.5 81t-68.5 26v121q41 0 41 60q0 67 -43 67q-27 0 -37 -25t-10 -72v-499h-104v317h-33v143h33v52
q0 96 42 149t109 53z" />
    <glyph glyph-name="agrave" unicode="&#xe0;" horiz-adv-x="392" 
d="M177 536l-122 121l46 39l94 -145zM342 464v-464h-92v29q-32 -39 -83 -39q-43 0 -75 35t-47 88t-15 115t15 115t47 88t75 35q58 0 83 -36v34h92zM133 232q0 -39 16.5 -67t40.5 -28q23 0 40 28t17 67t-17 67t-40 28q-24 0 -40.5 -28t-16.5 -67z" />
    <glyph glyph-name="aacute" unicode="&#xe1;" horiz-adv-x="392" 
d="M290 657l-122 -121l-18 15l94 145zM342 464v-464h-92v29q-32 -39 -83 -39q-43 0 -75 35t-47 88t-15 115t15 115t47 88t75 35q58 0 83 -36v34h92zM133 232q0 -39 16.5 -67t40.5 -28q23 0 40 28t17 67t-17 67t-40 28q-24 0 -40.5 -28t-16.5 -67z" />
    <glyph glyph-name="acircumflex" unicode="&#xe2;" horiz-adv-x="392" 
d="M163 698h22l80 -141h-24l-68 71l-67 -71h-24zM342 464v-464h-92v29q-32 -39 -83 -39q-43 0 -75 35t-47 88t-15 115t15 115t47 88t75 35q58 0 83 -36v34h92zM133 232q0 -39 16.5 -67t40.5 -28q23 0 40 28t17 67t-17 67t-40 28q-24 0 -40.5 -28t-16.5 -67z" />
    <glyph glyph-name="atilde" unicode="&#xe3;" horiz-adv-x="392" 
d="M278 682l28 -44q-28 -55 -77 -55q-28 0 -50 22q-23 23 -42 23q-18 0 -27.5 -9.5t-20.5 -31.5l-26 44q28 55 76 55q24 0 49 -21q26 -24 43 -24q26 0 47 41zM342 464v-464h-92v29q-32 -39 -83 -39q-43 0 -75 35t-47 88t-15 115t15 115t47 88t75 35q58 0 83 -36v34h92z
M133 232q0 -39 16.5 -67t40.5 -28q23 0 40 28t17 67t-17 67t-40 28q-24 0 -40.5 -28t-16.5 -67z" />
    <glyph glyph-name="adieresis" unicode="&#xe4;" horiz-adv-x="392" 
d="M164 632q0 -31 -12.5 -53t-34.5 -22t-34 22t-12 53q0 30 12 52t34 22t34.5 -22t12.5 -52zM280 632q0 -31 -12.5 -53t-34.5 -22t-34 22t-12 53q0 30 12 52t34 22t34.5 -22t12.5 -52zM342 464v-464h-92v29q-32 -39 -83 -39q-43 0 -75 35t-47 88t-15 115t15 115t47 88t75 35
q58 0 83 -36v34h92zM133 232q0 -39 16.5 -67t40.5 -28q23 0 40 28t17 67t-17 67t-40 28q-24 0 -40.5 -28t-16.5 -67z" />
    <glyph glyph-name="aring" unicode="&#xe5;" horiz-adv-x="392" 
d="M119 621q0 40 16.5 69t45.5 29t45.5 -29.5t16.5 -69.5t-16.5 -69t-45.5 -29t-45.5 29.5t-16.5 69.5zM140 620q0 -32 10.5 -55t30.5 -23q21 0 32 23t11 55t-11.5 55.5t-31.5 23.5t-30.5 -23t-10.5 -56zM342 464v-464h-92v29q-32 -39 -83 -39q-43 0 -75 35t-47 88t-15 115
t15 115t47 88t75 35q58 0 83 -36v34h92zM133 232q0 -39 16.5 -67t40.5 -28q23 0 40 28t17 67t-17 67t-40 28q-24 0 -40.5 -28t-16.5 -67z" />
    <glyph glyph-name="ae" unicode="&#xe6;" horiz-adv-x="618" 
d="M444 474q76 0 114 -72.5t38 -180.5q0 -17 -1 -25h-201q0 -36 14 -59t36 -23q43 0 51 37h92q-32 -164 -148 -164q-69 0 -109 77v-64h-92v29q-32 -39 -83 -39q-43 0 -75 35t-47 88t-15 115t15 115t47 88t75 35q58 0 83 -36v34h92v-73q42 83 114 83zM121 232q0 -39 16.5 -67
t40.5 -28q23 0 40 28t17 67t-17 67t-40 28q-24 0 -40.5 -28t-16.5 -67zM491 295q-2 24 -14.5 43.5t-34.5 19.5q-21 0 -33.5 -19.5t-13.5 -43.5h96z" />
    <glyph glyph-name="ccedilla" unicode="&#xe7;" horiz-adv-x="286" 
d="M26 227q0 62 15 115t48 88.5t78 35.5q47 0 84 -27v-150q-28 28 -62 28q-26 0 -42.5 -25t-16.5 -65t16 -61.5t43 -21.5q41 0 62 33v-154q-29 -29 -67 -33l-7 -32q24 -14 24 -48q0 -52 -45 -52q-26 0 -38 13v43q9 -9 22 -9q18 0 18 28q0 15 -16 26l9 31q-59 9 -92 78
t-33 159z" />
    <glyph glyph-name="egrave" unicode="&#xe8;" horiz-adv-x="350" 
d="M172 536l-121 121l46 39l94 -145zM122 196q0 -36 14 -59t36 -23q43 0 51 37h92q-32 -164 -148 -164q-46 0 -80 36t-49.5 89.5t-15.5 115.5q0 61 16.5 116.5t52 92.5t81.5 37q76 0 114 -72.5t38 -180.5q0 -17 -1 -25h-201zM219 295q-2 24 -14.5 43.5t-34.5 19.5
q-21 0 -33.5 -19.5t-13.5 -43.5h96z" />
    <glyph glyph-name="eacute" unicode="&#xe9;" horiz-adv-x="350" 
d="M269 657l-121 -121l-18 15l93 145zM122 196q0 -36 14 -59t36 -23q43 0 51 37h92q-32 -164 -148 -164q-46 0 -80 36t-49.5 89.5t-15.5 115.5q0 61 16.5 116.5t52 92.5t81.5 37q76 0 114 -72.5t38 -180.5q0 -17 -1 -25h-201zM219 295q-2 24 -14.5 43.5t-34.5 19.5
q-21 0 -33.5 -19.5t-13.5 -43.5h96z" />
    <glyph glyph-name="ecircumflex" unicode="&#xea;" horiz-adv-x="350" 
d="M158 698h21l81 -141h-25l-67 71l-67 -71h-25zM122 196q0 -36 14 -59t36 -23q43 0 51 37h92q-32 -164 -148 -164q-46 0 -80 36t-49.5 89.5t-15.5 115.5q0 61 16.5 116.5t52 92.5t81.5 37q76 0 114 -72.5t38 -180.5q0 -17 -1 -25h-201zM219 295q-2 24 -14.5 43.5
t-34.5 19.5q-21 0 -33.5 -19.5t-13.5 -43.5h96z" />
    <glyph glyph-name="edieresis" unicode="&#xeb;" horiz-adv-x="350" 
d="M158 632q0 -31 -12.5 -53t-34.5 -22t-34 22t-12 53q0 30 12 52t34 22t34.5 -22t12.5 -52zM274 632q0 -31 -12.5 -53t-34.5 -22t-34 22t-12 53q0 30 12 52t34 22t34.5 -22t12.5 -52zM122 196q0 -36 14 -59t36 -23q43 0 51 37h92q-32 -164 -148 -164q-46 0 -80 36
t-49.5 89.5t-15.5 115.5q0 61 16.5 116.5t52 92.5t81.5 37q76 0 114 -72.5t38 -180.5q0 -17 -1 -25h-201zM219 295q-2 24 -14.5 43.5t-34.5 19.5q-21 0 -33.5 -19.5t-13.5 -43.5h96z" />
    <glyph glyph-name="igrave" unicode="&#xec;" horiz-adv-x="169" 
d="M93 536l-122 121l46 39l94 -145zM137 460v-460h-104v460h104z" />
    <glyph glyph-name="iacute" unicode="&#xed;" horiz-adv-x="169" 
d="M215 657l-121 -121l-19 15l94 145zM137 460v-460h-104v460h104z" />
    <glyph glyph-name="icircumflex" unicode="&#xee;" horiz-adv-x="169" 
d="M74 698h22l80 -141h-24l-67 71l-68 -71h-24zM137 460v-460h-104v460h104z" />
    <glyph glyph-name="idieresis" unicode="&#xef;" horiz-adv-x="169" 
d="M137 460v-460h-104v460h104zM74 632q0 -31 -12.5 -53t-34.5 -22t-34 22t-12 53q0 30 12 52t34 22t34.5 -22t12.5 -52zM190 632q0 -31 -12.5 -53t-34.5 -22t-34 22t-12 53q0 30 12 52t34 22t34.5 -22t12.5 -52z" />
    <glyph glyph-name="eth" unicode="&#xf0;" horiz-adv-x="333" 
d="M114 232q0 -40 15 -67.5t38 -27.5t38 27.5t15 67.5t-15 67.5t-38 27.5t-38 -27.5t-15 -67.5zM202 469q-8 57 -51 120l-71 -74l-38 40l73 77q-47 45 -92 70l44 76q69 -37 110 -81l68 70l38 -41l-67 -70q48 -54 77 -167t29 -259q0 -98 -41.5 -170.5t-112.5 -72.5
q-72 0 -112 72.5t-40 171.5t40 171t111 72q17 0 35 -5z" />
    <glyph glyph-name="ntilde" unicode="&#xf1;" horiz-adv-x="364" 
d="M266 682l28 -44q-28 -55 -77 -55q-28 0 -50 22q-23 23 -42 23q-18 0 -27.5 -9.5t-20.5 -31.5l-26 44q28 55 76 55q24 0 49 -21q26 -24 43 -24q26 0 47 41zM31 0v460h103v-42q30 50 89 50q109 0 109 -180v-288h-104v251q0 48 -8.5 73t-34.5 25q-51 0 -51 -81v-268h-103z
" />
    <glyph glyph-name="ograve" unicode="&#xf2;" horiz-adv-x="333" 
d="M177 536l-122 121l46 39l94 -145zM319 230q0 -98 -40 -170.5t-111 -72.5q-72 0 -112 72.5t-40 171.5t40 171t111 72q72 0 112 -72.5t40 -171.5zM114 232q0 -40 15 -67.5t38 -27.5t38 27.5t15 67.5t-15 67.5t-38 27.5t-38 -27.5t-15 -67.5z" />
    <glyph glyph-name="oacute" unicode="&#xf3;" horiz-adv-x="333" 
d="M280 657l-122 -121l-18 15l94 145zM319 230q0 -98 -40 -170.5t-111 -72.5q-72 0 -112 72.5t-40 171.5t40 171t111 72q72 0 112 -72.5t40 -171.5zM114 232q0 -40 15 -67.5t38 -27.5t38 27.5t15 67.5t-15 67.5t-38 27.5t-38 -27.5t-15 -67.5z" />
    <glyph glyph-name="ocircumflex" unicode="&#xf4;" horiz-adv-x="333" 
d="M154 698h22l80 -141h-24l-68 71l-67 -71h-25zM319 230q0 -98 -40 -170.5t-111 -72.5q-72 0 -112 72.5t-40 171.5t40 171t111 72q72 0 112 -72.5t40 -171.5zM114 232q0 -40 15 -67.5t38 -27.5t38 27.5t15 67.5t-15 67.5t-38 27.5t-38 -27.5t-15 -67.5z" />
    <glyph glyph-name="otilde" unicode="&#xf5;" horiz-adv-x="333" 
d="M260 682l28 -44q-28 -55 -77 -55q-28 0 -50 22q-23 23 -42 23q-18 0 -27.5 -9.5t-20.5 -31.5l-26 44q28 55 76 55q24 0 49 -21q26 -24 43 -24q26 0 47 41zM319 230q0 -98 -40 -170.5t-111 -72.5q-72 0 -112 72.5t-40 171.5t40 171t111 72q72 0 112 -72.5t40 -171.5z
M114 232q0 -40 15 -67.5t38 -27.5t38 27.5t15 67.5t-15 67.5t-38 27.5t-38 -27.5t-15 -67.5z" />
    <glyph glyph-name="odieresis" unicode="&#xf6;" horiz-adv-x="333" 
d="M152 632q0 -31 -12.5 -53t-34.5 -22t-34 22t-12 53q0 30 12 52t34 22t34.5 -22t12.5 -52zM268 632q0 -31 -12.5 -53t-34.5 -22t-34 22t-12 53q0 30 12 52t34 22t34.5 -22t12.5 -52zM319 230q0 -98 -40 -170.5t-111 -72.5q-72 0 -112 72.5t-40 171.5t40 171t111 72
q72 0 112 -72.5t40 -171.5zM114 232q0 -40 15 -67.5t38 -27.5t38 27.5t15 67.5t-15 67.5t-38 27.5t-38 -27.5t-15 -67.5z" />
    <glyph glyph-name="divide" unicode="&#xf7;" horiz-adv-x="254" 
d="M35 315h183v-71h-183v71zM181 94q0 -36 -15 -61t-37 -25t-37 25t-15 61t15 61t37 25t37 -25t15 -61zM181 463q0 -36 -15 -61t-37 -25t-37 25t-15 61t15 61t37 25t37 -25t15 -61z" />
    <glyph glyph-name="oslash" unicode="&#xf8;" horiz-adv-x="333" 
d="M319 230q0 -98 -40 -170.5t-111 -72.5q-32 0 -59 16l-10 -26h-48l21 58q-56 71 -56 196q0 99 40 171t111 72q33 0 62 -18l12 32h48l-25 -65q55 -70 55 -193zM114 232q0 -40 15 -67.5t38 -27.5t38 27.5t15 67.5t-15 67.5t-38 27.5t-38 -27.5t-15 -67.5z" />
    <glyph glyph-name="ugrave" unicode="&#xf9;" horiz-adv-x="338" 
d="M162 536l-121 121l46 39l94 -145zM133 460v-282q0 -63 37 -63t37 63v282h104v-274q0 -95 -36 -146t-105 -51t-105 51t-36 146v274h104z" />
    <glyph glyph-name="uacute" unicode="&#xfa;" horiz-adv-x="338" 
d="M286 657l-122 -121l-18 15l94 145zM133 460v-282q0 -63 37 -63t37 63v282h104v-274q0 -95 -36 -146t-105 -51t-105 51t-36 146v274h104z" />
    <glyph glyph-name="ucircumflex" unicode="&#xfb;" horiz-adv-x="338" 
d="M159 698h22l80 -141h-24l-68 71l-67 -71h-25zM133 460v-282q0 -63 37 -63t37 63v282h104v-274q0 -95 -36 -146t-105 -51t-105 51t-36 146v274h104z" />
    <glyph glyph-name="udieresis" unicode="&#xfc;" horiz-adv-x="338" 
d="M156 632q0 -31 -12.5 -53t-34.5 -22t-34 22t-12 53q0 30 12 52t34 22t34.5 -22t12.5 -52zM272 632q0 -31 -12.5 -53t-34.5 -22t-34 22t-12 53q0 30 12 52t34 22t34.5 -22t12.5 -52zM133 460v-282q0 -63 37 -63t37 63v282h104v-274q0 -95 -36 -146t-105 -51t-105 51
t-36 146v274h104z" />
    <glyph glyph-name="yacute" unicode="&#xfd;" horiz-adv-x="383" 
d="M193 218l79 246h105l-222 -670h-104l90 273l-132 397h103zM312 657l-122 -121l-18 15l94 145z" />
    <glyph glyph-name="thorn" unicode="&#xfe;" horiz-adv-x="366" 
d="M125 -200h-92v940h92v-309q34 39 83 39q64 0 100.5 -70.5t36.5 -167.5t-36.5 -167.5t-100.5 -70.5q-53 0 -83 36v-230zM126 232q0 -41 14.5 -68t42.5 -27t42.5 27t14.5 68t-14.5 68t-42.5 27t-42.5 -27t-14.5 -68z" />
    <glyph glyph-name="ydieresis" unicode="&#xff;" horiz-adv-x="383" 
d="M178 632q0 -31 -12.5 -53t-34.5 -22t-34 22t-12 53q0 30 12 52t34 22t34.5 -22t12.5 -52zM294 632q0 -31 -12.5 -53t-34.5 -22t-34 22t-12 53q0 30 12 52t34 22t34.5 -22t12.5 -52zM193 218l79 246h105l-222 -670h-104l90 273l-132 397h103z" />
    <glyph glyph-name="dotlessi" unicode="&#x131;" horiz-adv-x="169" 
d="M137 460v-460h-104v460h104z" />
    <glyph glyph-name="Lslash" unicode="&#x141;" horiz-adv-x="279" 
d="M37 334v380h127v-293l46 46v-131l-46 -46v-162h91v-128h-218v203l-34 -35v131z" />
    <glyph glyph-name="lslash" unicode="&#x142;" horiz-adv-x="184" 
d="M40 339v401h104v-327l40 40v-131l-40 -40v-282h-104v208l-39 -40v131z" />
    <glyph glyph-name="OE" unicode="&#x152;" horiz-adv-x="660" 
d="M419 714h218v-132h-114v-150h105v-133h-105v-166h114v-133h-218v136q-30 -69 -76.5 -108.5t-103.5 -39.5q-96 0 -158 106t-62 261t62 261t158 106q57 0 103.5 -39.5t76.5 -108.5v140zM334 348q0 93 -25 161t-69 68q-45 0 -69.5 -68t-24.5 -161t24.5 -160.5t69.5 -67.5
q44 0 69 68t25 160z" />
    <glyph glyph-name="oe" unicode="&#x153;" horiz-adv-x="536" 
d="M372 474q76 0 114 -72.5t38 -180.5q0 -17 -1 -25h-201q0 -36 14 -59t36 -23q43 0 51 37h92q-32 -164 -148 -164q-60 0 -98 58q-40 -58 -101 -58q-72 0 -112 72.5t-40 171.5t40 171t111 72q63 0 104 -61q41 61 101 61zM114 232q0 -40 15 -67.5t38 -27.5t38 27.5t15 67.5
t-15 67.5t-38 27.5t-38 -27.5t-15 -67.5zM419 295q-2 24 -14.5 43.5t-34.5 19.5q-21 0 -33.5 -19.5t-13.5 -43.5h96z" />
    <glyph glyph-name="Scaron" unicode="&#x160;" horiz-adv-x="396" 
d="M281 877l-70 -121h-17l-71 121h21l57 -59l58 59h22zM310 553q-43 25 -100 25q-33 0 -49.5 -21t-16.5 -48q0 -54 63 -69q82 -19 128 -82.5t46 -149.5q0 -88 -53.5 -151t-148.5 -63q-92 0 -167 77l47 116q2 -1 12.5 -10.5t13 -11t11.5 -8.5t13 -8.5t13 -6.5t15 -6l15 -2.5
t18 -1.5q38 0 59.5 23.5t21.5 56.5q0 34 -21 64t-62 39q-69 16 -109 66.5t-40 130.5q0 82 49.5 144t132.5 62q87 0 146 -38z" />
    <glyph glyph-name="scaron" unicode="&#x161;" horiz-adv-x="262" 
d="M210 331q-28 26 -53 26q-27 0 -27 -28q0 -23 27 -30q43 -11 65.5 -52t22.5 -94q0 -75 -32 -120t-92 -45q-65 0 -114 63l34 95q38 -45 72 -45q31 0 31 29q0 32 -32 41q-43 10 -66 45t-23 88q0 77 35.5 120t82.5 43q23 0 41 -4.5t27 -10t26 -17.5zM153 507h-22l-80 141h24
l68 -70l67 70h24z" />
    <glyph glyph-name="Ydieresis" unicode="&#x178;" horiz-adv-x="387" 
d="M184 819q0 -25 -10 -42.5t-28 -17.5t-27.5 17.5t-9.5 42.5q0 24 9.5 41.5t27.5 17.5t28 -17.5t10 -41.5zM288 819q0 -25 -9.5 -42.5t-27.5 -17.5t-27.5 17.5t-9.5 42.5q0 24 9.5 41.5t27.5 17.5t27.5 -17.5t9.5 -41.5zM139 714l55 -197l56 197h133l-126 -352v-362h-126
v362l-125 352h133z" />
    <glyph glyph-name="Zcaron" unicode="&#x17d;" horiz-adv-x="396" 
d="M380 714l-196 -586h187v-128h-364l200 587h-170v127h343zM281 877l-70 -121h-17l-71 121h21l57 -59l58 59h22z" />
    <glyph glyph-name="zcaron" unicode="&#x17e;" horiz-adv-x="324" 
d="M310 464l-122 -334h113v-130h-285l135 333h-121v131h280zM183 507h-22l-80 141h24l68 -70l67 70h24z" />
    <glyph glyph-name="florin" unicode="&#x192;" horiz-adv-x="398" 
d="M364 551v-551h-330v551h330z" />
    <glyph glyph-name="circumflex" unicode="&#x2c6;" horiz-adv-x="265" 
d="M123 698h22l81 -141h-25l-67 71l-68 -71h-24z" />
    <glyph glyph-name="caron" unicode="&#x2c7;" horiz-adv-x="265" 
d="M143 507h-22l-80 141h24l68 -70l67 70h24z" />
    <glyph glyph-name="breve" unicode="&#x2d8;" horiz-adv-x="209" 
d="M58 678q19 -42 53 -42t54 46l22 -31q-30 -61 -76 -61t-75 57z" />
    <glyph glyph-name="dotaccent" unicode="&#x2d9;" horiz-adv-x="155" 
d="M120 626q0 -25 -10.5 -42.5t-25.5 -17.5t-25.5 17.5t-10.5 42.5t10.5 42.5t25.5 17.5t25.5 -17.5t10.5 -42.5z" />
    <glyph glyph-name="ring" unicode="&#x2da;" horiz-adv-x="214" 
d="M46 621q0 40 16.5 69t45.5 29t45.5 -29.5t16.5 -69.5t-16.5 -69t-45.5 -29t-45.5 29.5t-16.5 69.5zM67 620q0 -32 10.5 -55t30.5 -23t31.5 23t11.5 55t-11.5 55.5t-31.5 23.5t-30.5 -23t-10.5 -56z" />
    <glyph glyph-name="ogonek" unicode="&#x2db;" horiz-adv-x="235" 
d="M107 -58q0 -20 9 -30.5t21 -10.5q17 0 24 7q5 5 11 5q7 0 7 -10q0 -8 -3.5 -19t-16.5 -24t-33 -13q-25 0 -40.5 20.5t-15.5 58.5q0 34 16 74h36q-15 -36 -15 -58z" />
    <glyph glyph-name="tilde" unicode="&#x2dc;" horiz-adv-x="321" 
d="M257 682l28 -44q-28 -55 -77 -55q-28 0 -50 22q-23 23 -42 23q-18 0 -27.5 -9.5t-20.5 -31.5l-26 44q28 55 76 55q24 0 49 -21q26 -24 43 -24q26 0 47 41z" />
    <glyph glyph-name="hungarumlaut" unicode="&#x2dd;" horiz-adv-x="301" 
d="M187 669l-98 -140l-22 12l68 159zM273 669l-97 -140l-22 12l67 159z" />
    <glyph glyph-name="pi" unicode="&#x3c0;" 
d="M194 396v-40h-183v40h183zM35 659q-1 39 16.5 68.5t53.5 29.5q33 0 52.5 -24t19.5 -64q0 -45 -20 -65q26 -16 26 -75q0 -46 -21.5 -73.5t-54.5 -27.5q-35 0 -54.5 28t-19.5 69h51q0 -32 22 -32q25 0 25 47q0 45 -33 45v37q29 0 29 37q0 36 -23 36q-22 0 -22 -36h-47z
M165 319v-208h24v-57h-24v-57h-51v57h-87v63l83 202h55zM114 111v111l-43 -111h43z" />
    <glyph glyph-name="endash" unicode="&#x2013;" horiz-adv-x="349" 
d="M310 346v-102h-272v102h272z" />
    <glyph glyph-name="emdash" unicode="&#x2014;" horiz-adv-x="502" 
d="M466 346v-102h-428v102h428z" />
    <glyph glyph-name="quoteleft" unicode="&#x2018;" horiz-adv-x="132" 
d="M75 614q0 -23 17 -74h-40q-15 49 -15 74v138h61v-104h-23v-34z" />
    <glyph glyph-name="quoteright" unicode="&#x2019;" horiz-adv-x="133" 
d="M36 648v104h67v-138q0 -12 -1.5 -23t-3.5 -17.5t-6 -17.5t-5 -16h-44q1 4 5.5 15t6.5 17.5t4 18t2 23.5v34h-25z" />
    <glyph glyph-name="quotesinglbase" unicode="&#x201a;" horiz-adv-x="141" 
d="M42 0v104h61v-138q0 -25 -15 -74h-40q17 51 17 74v34h-23z" />
    <glyph glyph-name="quotedblleft" unicode="&#x201c;" horiz-adv-x="220" 
d="M76 614q0 -23 17 -74h-40q-15 49 -15 74v138h61v-104h-23v-34zM166 614q0 -23 17 -74h-40q-15 49 -15 74v138h61v-104h-23v-34z" />
    <glyph glyph-name="quotedblright" unicode="&#x201d;" horiz-adv-x="227" 
d="M132 648v104h61v-138q0 -25 -15 -74h-40q17 51 17 74v34h-23zM42 648v104h61v-138q0 -25 -15 -74h-40q17 51 17 74v34h-23z" />
    <glyph glyph-name="quotedblbase" unicode="&#x201e;" horiz-adv-x="227" 
d="M132 0v104h61v-138q0 -25 -15 -74h-40q17 51 17 74v34h-23zM42 0v104h61v-138q0 -25 -15 -74h-40q17 51 17 74v34h-23z" />
    <glyph glyph-name="dagger" unicode="&#x2020;" horiz-adv-x="158" 
d="M93 736v-156h35v-28h-35v-347h-27v347h-35v28h35v156h27z" />
    <glyph glyph-name="daggerdbl" unicode="&#x2021;" horiz-adv-x="158" 
d="M29 591v27h36v118h25v-118h36v-27h-36v-126h36v-27h-36v-304h-25v304h-36v27h36v126h-36z" />
    <glyph glyph-name="bullet" unicode="&#x2022;" horiz-adv-x="300" 
d="M259 273q0 -72 -29 -125.5t-79 -53.5q-52 0 -81.5 52.5t-29.5 124.5t29.5 125.5t81.5 53.5q51 0 79.5 -52.5t28.5 -124.5z" />
    <glyph glyph-name="ellipsis" unicode="&#x2026;" horiz-adv-x="561" 
d="M165 82q0 -36 -15 -61t-37 -25t-37 25t-15 61t15 61t37 25t37 -25t15 -61zM333 82q0 -36 -15 -61t-37 -25t-37 25t-15 61t15 61t37 25t37 -25t15 -61zM501 82q0 -36 -15 -61t-37 -25t-37 25t-15 61t15 61t37 25t37 -25t15 -61z" />
    <glyph glyph-name="perthousand" unicode="&#x2030;" horiz-adv-x="663" 
d="M216 594q0 -60 -25.5 -103.5t-72.5 -43.5q-46 0 -72 44t-26 103q0 60 26 104t72 44q47 0 72.5 -44t25.5 -104zM155 594q0 24 -9.5 42t-27.5 18q-17 0 -27 -18t-10 -43q0 -24 10 -42t27 -18t27 18.5t10 42.5zM368 714l-264 -714h-54l263 714h55zM404 140
q0 -60 -25.5 -103.5t-71.5 -43.5q-47 0 -72.5 43.5t-25.5 103.5t25.5 104t72.5 44q46 0 71.5 -44t25.5 -104zM343 140q0 24 -9.5 42t-26.5 18q-18 0 -28 -18t-10 -43q0 -24 10 -42t28 -18q17 0 26.5 18.5t9.5 42.5zM632 140q0 -60 -25.5 -103.5t-71.5 -43.5
q-47 0 -72.5 43.5t-25.5 103.5t25.5 104t72.5 44q46 0 71.5 -44t25.5 -104zM571 140q0 24 -9.5 42t-26.5 18q-18 0 -28 -18t-10 -43q0 -24 10 -42t28 -18q17 0 26.5 18.5t9.5 42.5z" />
    <glyph glyph-name="guilsinglleft" unicode="&#x2039;" horiz-adv-x="235" 
d="M151 101l-135 164v82l135 164l69 -66l-120 -139l120 -137z" />
    <glyph glyph-name="guilsinglright" unicode="&#x203a;" horiz-adv-x="236" 
d="M16 443l69 68l135 -164v-82l-135 -164l-69 68l120 137z" />
    <glyph glyph-name="fraction" unicode="&#x2044;" horiz-adv-x="363" 
d="M52 -36h-43l292 786h43z" />
    <glyph glyph-name="trademark" unicode="&#x2122;" horiz-adv-x="220" 
d="M96 721v-18h-35v-173h-15v173h-35v18h85zM115 724l37 -153l38 153l24 -193h-11l-16 126l-35 -137l-34 137l-16 -126h-12z" />
    <glyph glyph-name="partialdiff" unicode="&#x2202;" 
d="M194 396v-40h-183v40h183zM30 225q-1 39 16.5 68.5t53.5 29.5q33 0 52.5 -24t19.5 -64q0 -45 -20 -65q26 -16 26 -75q0 -46 -21.5 -73.5t-54.5 -27.5q-35 0 -54.5 28t-19.5 69h51q0 -32 22 -32q25 0 25 47q0 45 -33 45v37q29 0 29 37q0 36 -23 36q-22 0 -22 -36h-47z
M133 747v-322h-54v267h-26v55h80z" />
    <glyph glyph-name="product" unicode="&#x220f;" 
d="M194 396v-40h-183v40h183zM39 637q0 49 16.5 81.5t49.5 32.5q32 0 50 -26t18 -66q0 -56 -26 -111l-27 -57h54v-64h-138l73 167q12 32 12 60q0 29 -17 29q-20 0 -20 -46h-45zM35 225q-1 39 16.5 68.5t53.5 29.5q33 0 52.5 -24t19.5 -64q0 -45 -20 -65q26 -16 26 -75
q0 -46 -21.5 -73.5t-54.5 -27.5q-35 0 -54.5 28t-19.5 69h51q0 -32 22 -32q25 0 25 47q0 45 -33 45v37q29 0 29 37q0 36 -23 36q-22 0 -22 -36h-47z" />
    <glyph glyph-name="summation" unicode="&#x2211;" 
d="M194 396v-40h-183v40h183zM165 318v-208h24v-57h-24v-57h-51v57h-87v63l83 202h55zM133 747v-322h-54v267h-26v55h80zM114 110v111l-43 -111h43z" />
    <glyph glyph-name="minus" unicode="&#x2212;" horiz-adv-x="455" 
d="M400 298v-54h-344v54h344z" />
    <glyph glyph-name="radical" unicode="&#x221a;" horiz-adv-x="388" 
d="M65 291q23 -78 34 -180q25 111 111.5 274t147.5 223v-157q-79 -65 -149.5 -183t-113.5 -251q-10 47 -32.5 99.5t-42.5 70.5z" />
    <glyph glyph-name="integral" unicode="&#x222b;" horiz-adv-x="474" 
d="M445 686v-688h-412v688h412zM404 645h-331v-606h331v606z" />
    <glyph glyph-name="approxequal" unicode="&#x2248;" horiz-adv-x="777" 
d="M324 268h122v123h-122v-123zM284 530q0 45 -26 74.5t-74 29.5q-46 0 -75 -27.5t-29 -75.5q0 -45 28.5 -72.5t76.5 -27.5h99v99zM184 391q-62 0 -102.5 40t-40.5 102q0 58 40.5 99t99.5 41q69 0 106 -40t37 -102v-100h122v100q0 62 38 102t105 40q60 0 100 -40t40 -100
t-41.5 -101t-101.5 -41h-100v-123h100q60 0 101.5 -40.5t41.5 -101.5q0 -59 -40 -99t-100 -40q-68 0 -105.5 39.5t-37.5 101.5v100h-122v-100q0 -62 -37 -101.5t-106 -39.5q-60 0 -100 39.5t-40 99.5q0 61 42 101.5t101 40.5h100v123h-100zM585 431q48 0 76.5 27.5
t28.5 72.5q0 48 -29 75.5t-75 27.5q-48 0 -74 -29.5t-26 -74.5v-99h99zM185 228q-48 0 -76.5 -27.5t-28.5 -72.5q0 -48 29 -75.5t75 -27.5q48 0 74 29.5t26 74.5v99h-99zM486 129q0 -45 26 -74.5t74 -29.5q46 0 75 27.5t29 75.5q0 45 -28.5 72.5t-76.5 27.5h-99v-99z" />
    <glyph glyph-name="notequal" unicode="&#x2260;" horiz-adv-x="279" 
d="M47 315v102h99l9 51h56l-9 -51h29v-102h-47l-15 -81h62v-102h-82l-10 -61h-57l11 61h-46v102h65l15 81h-80z" />
    <glyph glyph-name="lessequal" unicode="&#x2264;" horiz-adv-x="266" 
d="M234 178v-102h-196v102h196zM220 704v-112l-101 -128l97 -127v-113l-178 240z" />
    <glyph glyph-name="greaterequal" unicode="&#x2265;" horiz-adv-x="266" 
d="M234 178v-102h-196v102h196zM48 337l97 127l-101 128v112l184 -240l-180 -240v113z" />
    <glyph glyph-name="lozenge" unicode="&#x25ca;" horiz-adv-x="324" 
d="M162 423l-85 -146l84 -137l86 143zM27 279l135 228l136 -224l-137 -228z" />
    <glyph glyph-name="CR" unicode="&#xe000;" horiz-adv-x="0" 
 />
    <glyph glyph-name="HT" unicode="&#xe001;" horiz-adv-x="0" 
 />
    <glyph glyph-name="NUL" unicode="&#xe002;" horiz-adv-x="0" 
 />
    <glyph glyph-name="apple" unicode="&#xe003;" horiz-adv-x="795" 
d="M275 530q57 0 91 -24q40 -27 60 -27q33 0 66 27q31 25 84 25q45 0 87.5 -20t48.5 -48q-40 -30 -60 -59.5t-20 -76.5q0 -54 30 -92t72 -50q-13 -31 -29 -60t-41 -63t-58.5 -54.5t-69.5 -20.5q-46 0 -73 33q-13 16 -39 16q-27 0 -40 -16q-25 -31 -66 -31q-26 0 -65.5 28
t-77 73.5t-64.5 111.5t-27 133q0 86 52 140.5t139 54.5zM534 669q10 0 10 -9q0 -43 -38 -92.5t-83 -49.5q-12 0 -12 17q0 46 41 90t82 44z" />
    <glyph glyph-name="nbspace" unicode="&#xe004;" horiz-adv-x="233" 
 />
  </font>
</defs>
</svg>
